<svg width="125" height="54" viewBox="0 0 125 54" fill="none" xmlns="http://www.w3.org/2000/svg">
<path d="M34.2995 13.4392V36.0211C34.2995 36.2327 34.3954 36.4124 34.5178 36.431C35.2124 36.5297 35.9841 36.5297 36.7948 36.431C37.4565 36.3432 38.2637 36.1812 39.2606 35.934C39.2243 36.2791 39.2064 36.6519 39.2064 37.0545C39.2064 37.3971 39.2269 37.8136 39.2656 38.2646H31.4204V13.4437C31.5699 13.4661 31.7627 13.5067 32.0011 13.5623C32.3493 13.6646 32.7066 13.6671 32.9195 13.5696L33.6252 13.5643C33.8937 13.5015 34.1159 13.4578 34.2995 13.4392ZM43.7035 14.6741C43.285 14.7742 43.0062 14.7761 42.8052 14.6794H42.0995C41.8501 14.6211 41.6597 14.5838 41.5163 14.56V38.2644H44.2475V14.5547C44.0903 14.5754 43.9115 14.6143 43.7035 14.6741ZM46.4086 14.5374C46.435 14.8738 46.4482 15.2101 46.4482 15.539C46.4482 15.9716 46.4357 16.3535 46.4125 16.6798H46.8686C48.161 16.3999 49.2462 16.2567 50.0783 16.2567C50.2116 16.2567 50.3187 16.4405 50.3187 16.6665V38.2646H52.9682V16.6665C52.9682 16.4404 53.0758 16.2567 53.2082 16.2567C53.8137 16.2567 54.6802 16.3522 55.7852 16.5392C56.0648 16.6083 56.3614 16.652 56.6706 16.672C56.6393 16.3444 56.6393 15.9689 56.6718 15.549C56.6377 15.2141 56.6393 14.8739 56.678 14.5376H46.4086V14.5374ZM58.8516 14.5374V38.2646H66.334C66.2975 37.8372 66.2781 37.4465 66.2781 37.1237C66.2781 36.7543 66.2948 36.4085 66.3249 36.0918C65.8156 36.2245 65.2483 36.3305 64.6397 36.4019C63.9319 36.4995 62.957 36.5468 61.7403 36.5468C61.6081 36.5468 61.501 36.3623 61.501 36.1346V26.9644C61.501 26.7389 61.6081 26.5545 61.7403 26.5545H63.7426C64.4098 26.6213 64.9459 26.6885 65.483 26.7547L65.8794 26.8019C65.8678 26.7112 65.8548 26.6088 65.8403 26.5003L65.833 24.85C65.833 24.8036 65.8369 24.7584 65.8462 24.7186C65.8513 24.6869 65.8571 24.6537 65.8629 24.6232C65.1577 24.7731 64.5131 24.8361 63.7427 24.8361H61.7404C61.6082 24.8361 61.5011 24.6515 61.5011 24.4254V16.6665C61.5011 16.4404 61.6082 16.2567 61.7404 16.2567C63.2173 16.2567 64.7682 16.4213 66.353 16.7475C66.3031 16.3733 66.2781 16.0139 66.2781 15.6796C66.2781 15.2819 66.303 14.8984 66.3538 14.5374H58.8516ZM77.5986 30.9745C77.5412 28.0423 76.2261 25.4403 73.682 23.2602C71.7965 21.5961 70.8815 19.979 70.8815 18.3221C70.8815 15.6498 71.795 14.1826 73.5241 14.0759C74.7006 14.0759 75.6057 15.1557 76.2187 17.2901C76.2828 16.9147 76.3724 16.4347 76.4885 15.831C76.6302 15.1916 76.7502 14.6552 76.8507 14.2121C75.9466 13.2895 74.8563 12.7747 73.6088 12.6845C70.4701 12.969 68.8869 15.4459 68.7782 20.2551C68.7782 23.4952 69.9768 26.0973 72.3416 27.9803C74.3185 29.5191 75.3198 31.2829 75.3198 33.2166C75.1944 35.9342 74.249 37.3577 72.5074 37.4647C70.7845 37.3621 69.7066 35.9727 69.2974 33.334H69.2668C69.1565 34.7678 68.9809 36.1838 68.7451 37.5458C69.7933 38.2255 70.8816 38.6168 71.982 38.7078C75.4579 38.7071 77.3769 35.8862 77.5986 30.9745ZM82.1747 27.5596C82.1332 27.5644 82.0728 27.5826 82.0225 27.6675C81.9787 27.7425 81.9532 27.8444 81.9532 27.9491V38.2644H79.2035V14.5335H84.157C86.9931 14.5335 88.3985 16.3906 88.4508 20.2064C88.4713 22.283 88.1379 23.9358 87.4611 25.1166C86.5293 26.743 84.8984 27.5674 82.6137 27.5674C82.4732 27.5674 82.3331 27.5638 82.1747 27.5596ZM82.1499 26.3634C82.2557 26.3898 82.3698 26.4039 82.4852 26.4039C82.8231 26.4039 83.213 26.292 83.6425 26.0725C84.8903 25.461 85.5833 23.7225 85.6999 20.8797C85.5833 17.6747 84.8476 15.8918 83.4977 15.5808H82.1831C82.0567 15.5808 81.9532 15.7578 81.9532 15.9741V25.9769C81.9532 26.171 82.0368 26.337 82.1499 26.3634ZM99.4497 14.5335V38.2644H106.945C106.909 37.8332 106.89 37.4358 106.89 37.1052C106.89 36.7292 106.905 36.376 106.938 36.055C106.423 36.1903 105.852 36.2986 105.242 36.3701C104.528 36.4663 103.582 36.5124 102.348 36.5124C102.221 36.5124 102.118 36.3352 102.118 36.1214V26.9619C102.118 26.7469 102.221 26.5699 102.348 26.5699H104.568C105.402 26.6561 106.161 26.7378 106.856 26.8192C106.844 26.7217 106.831 26.6123 106.813 26.4928L106.806 24.85C106.806 24.805 106.809 24.7624 106.818 24.7247C106.826 24.6829 106.834 24.6417 106.842 24.6046C106.148 24.7452 105.384 24.8182 104.568 24.8182H102.348C102.221 24.8182 102.118 24.6417 102.118 24.4269V16.6779C102.118 16.4616 102.221 16.2858 102.348 16.2858C103.828 16.2858 105.381 16.453 106.967 16.7801C106.915 16.3974 106.89 16.0326 106.89 15.693C106.89 15.2851 106.915 14.8984 106.969 14.5336H99.4497V14.5335ZM113.434 38.2646H108.87V14.5335L114.74 14.5315C118.697 14.9931 120.727 18.6444 120.942 25.6724C120.676 33.5708 118.149 37.8075 113.434 38.2646ZM117.864 25.6942C117.864 19.1717 116.153 15.8613 112.783 15.8613H111.765C111.64 15.8613 111.537 16.039 111.537 16.2553V36.5441C111.537 36.7583 111.64 36.9362 111.765 36.9362H112.665C114.387 36.9362 115.702 35.9722 116.572 34.076C117.428 32.2042 117.864 29.3849 117.864 25.6942ZM89.9854 14.5335V38.2644H97.4792C97.4435 37.8332 97.4232 37.4358 97.4232 37.1052C97.4232 36.7292 97.4397 36.376 97.4721 36.055C96.9549 36.1903 96.3853 36.2986 95.7763 36.3701C95.0628 36.4663 94.1154 36.5124 92.881 36.5124C92.7557 36.5124 92.652 36.3352 92.652 36.1214V26.9619C92.652 26.7469 92.7557 26.5699 92.881 26.5699H95.1023C95.9375 26.6561 96.6951 26.7378 97.3905 26.8192C97.3785 26.7217 97.3641 26.6123 97.3476 26.4928L97.3402 24.85C97.3402 24.805 97.3448 24.7624 97.3529 24.7247C97.3602 24.6829 97.3676 24.6417 97.3734 24.6046C96.6826 24.7452 95.9196 24.8182 95.1023 24.8182H92.881C92.7557 24.8182 92.652 24.6417 92.652 24.4269V16.6779C92.652 16.4616 92.7557 16.2858 92.881 16.2858C94.3608 16.2858 95.9147 16.453 97.5004 16.7801C97.4494 16.3974 97.4233 16.0326 97.4233 15.693C97.4233 15.2851 97.4506 14.8984 97.5017 14.5336H89.9854V14.5335Z" fill="#002D73"/>
<path d="M26.2048 26.0324L19.3743 14.3329L16.4652 20.6591L19.6018 26.0322C19.8911 26.5285 19.8911 27.339 19.6018 27.8349L18.6946 29.3885C18.6946 29.3885 19.3064 30.9572 19.3345 31.0516C19.4755 31.5367 19.5097 32.6755 19.1091 33.195L11.975 42.5779C11.9733 45.7266 11.9708 52.2006 11.9738 52.2034C11.975 52.2041 26.205 27.8347 26.205 27.8347C26.4942 27.3385 26.4942 26.5287 26.2048 26.0324Z" fill="#3E8EDE"/>
<path d="M10.3403 27.5046C10.0519 27.011 10.0519 26.2012 10.3403 25.7047L11.2487 24.1485L10.6277 22.6197C10.3315 21.9013 10.4248 20.8798 10.8331 20.345L17.9685 10.9614L17.9734 1.34193L17.9693 1.338L17.9657 1.32944L3.73798 25.7047C3.4484 26.2012 3.4484 27.011 3.73861 27.5069L10.5677 39.2066L13.4776 32.8804L10.3403 27.5046Z" fill="#002D73"/>
<path d="M21.5646 7.02786C21.6991 7.02786 21.8299 7.1683 21.8901 7.37691C21.9986 7.76039 21.842 8.1023 21.7557 8.29057L15.5035 21.8854C15.4401 22.0224 15.4348 22.3176 15.4931 22.4593C15.5269 22.5431 18.8685 30.8478 18.9834 31.13C19.1477 31.5352 19.1322 32.5788 18.8048 33.0039L8.75229 46.2245C8.61114 46.4099 8.50645 46.5107 8.35999 46.513C8.23385 46.4986 8.10739 46.3562 8.05249 46.167C7.94239 45.7839 8.10739 45.4198 8.18656 45.2453L14.4371 31.6564C14.5011 31.5093 14.5075 31.229 14.4498 31.0793L10.9607 22.4837C10.7078 21.8675 10.7863 20.9935 11.1358 20.5356L21.1902 7.3132C21.3414 7.11048 21.4499 7.02786 21.5646 7.02786ZM21.5646 6.98325C21.444 6.98325 21.3306 7.06837 21.1742 7.27769L11.1199 20.4999C10.7587 20.9731 10.678 21.8725 10.9394 22.5092L14.4283 31.1046C14.4797 31.2381 14.4732 31.4986 14.4161 31.6296L8.16604 45.2178C8.08354 45.3999 7.91208 45.7796 8.02916 46.1868C8.08802 46.3901 8.22291 46.5421 8.35822 46.5576C8.51489 46.5553 8.62697 46.4452 8.76801 46.26L18.8206 33.0394C19.1682 32.5882 19.1695 31.5111 19.0049 31.1046C18.8887 30.8191 15.5146 22.4339 15.5146 22.4339C15.4628 22.3081 15.4677 22.0346 15.524 21.913L21.7761 8.31805C21.858 8.13924 22.0301 7.76932 21.9135 7.35728C21.849 7.13404 21.7097 6.98325 21.5646 6.98325Z" fill="#3E8EDE"/>
<path d="M18.644 31.2629C18.725 31.4731 18.7981 32.269 18.5942 32.532L8.54024 45.7544C8.45556 45.8654 8.40139 45.9191 8.37722 45.9157C8.34253 45.9191 8.36764 45.8137 8.45993 45.6097L14.7095 32.0245C14.8676 31.6741 14.8783 31.0996 14.7332 30.742L11.2445 22.1411C11.2445 22.1413 18.5633 31.0518 18.644 31.2629Z" fill="#FFCE00"/>
<path d="M18.644 31.2629L15.2084 22.7969C15.0626 22.438 15.0743 21.8622 15.2304 21.5206L21.481 7.92707C21.5739 7.72453 21.598 7.62335 21.5646 7.62335C21.5398 7.62335 21.4847 7.67296 21.4015 7.7861L11.3473 21.0069C11.1455 21.2728 11.0978 21.7846 11.2446 22.1413L18.644 31.2629Z" fill="#FFDE6E"/>
</svg>
