<svg width="22" height="20" viewBox="0 0 22 20" fill="none" xmlns="http://www.w3.org/2000/svg">
<path d="M19.5694 14.1V16.6C19.5704 16.8321 19.52 17.0618 19.4215 17.2745C19.3229 17.4871 19.1784 17.678 18.9972 17.8349C18.8159 17.9918 18.602 18.1113 18.369 18.1856C18.136 18.26 17.8891 18.2876 17.6442 18.2667C14.9266 17.9881 12.3162 17.1118 10.0228 15.7084C7.88897 14.4289 6.07989 12.7219 4.72399 10.7084C3.23148 8.53438 2.30266 6.0592 2.01278 3.48337C1.99071 3.25293 2.01974 3.02067 2.09801 2.80139C2.17627 2.58211 2.30207 2.38061 2.46739 2.20972C2.6327 2.03883 2.83392 1.9023 3.05822 1.80881C3.28252 1.71532 3.525 1.66692 3.77021 1.66671H6.41959C6.84818 1.66273 7.26368 1.80594 7.58864 2.06965C7.91361 2.33336 8.12586 2.69958 8.18585 3.10004C8.29767 3.9001 8.50506 4.68565 8.80404 5.44171C8.92286 5.73998 8.94857 6.06414 8.87814 6.37577C8.8077 6.68741 8.64407 6.97347 8.40663 7.20004L7.28506 8.25837C8.54224 10.3447 10.3729 12.0721 12.5838 13.2584L13.7054 12.2C13.9455 11.976 14.2487 11.8216 14.5789 11.7551C14.9092 11.6887 15.2527 11.7129 15.5688 11.825C16.37 12.1072 17.2025 12.3029 18.0504 12.4084C18.4794 12.4655 18.8712 12.6694 19.1512 12.9813C19.4313 13.2932 19.5801 13.6914 19.5694 14.1Z" stroke="#B00000" stroke-width="2" stroke-linecap="round" stroke-linejoin="round"/>
</svg>
